<?xml version="1.0" standalone="no"?>
<!DOCTYPE svg PUBLIC "-//W3C//DTD SVG 20010904//EN"
 "http://www.w3.org/TR/2001/REC-SVG-20010904/DTD/svg10.dtd">
<svg version="1.0" xmlns="http://www.w3.org/2000/svg"
 width="474.000000pt" height="465.000000pt" viewBox="0 0 474.000000 465.000000"
 preserveAspectRatio="xMidYMid meet">

<g transform="translate(0.000000,465.000000) scale(0.100000,-0.100000)"
fill="#000000" stroke="none">
<path d="M2418 4642 c-1 -4 -100 -25 -218 -45 -118 -20 -435 -75 -705 -122
-269 -47 -580 -101 -690 -120 -110 -19 -252 -44 -315 -55 -63 -11 -199 -34
-302 -52 l-188 -31 0 -1882 0 -1881 103 -17 c56 -9 194 -33 307 -53 113 -19
358 -62 545 -94 187 -32 446 -77 575 -100 129 -22 285 -49 345 -60 61 -10 227
-40 369 -65 243 -43 269 -46 405 -43 l146 3 3 242 2 243 898 2 c896 3 897 3
944 25 49 23 78 62 78 108 0 14 5 25 10 25 7 0 10 573 10 1700 0 1127 -3 1700
-10 1700 -5 0 -10 7 -10 15 0 30 -33 82 -64 98 -17 10 -65 21 -106 27 -43 5
-437 10 -912 10 l-838 0 0 215 0 215 -189 0 c-104 0 -191 -4 -193 -8z m2160
-2279 l-3 -1698 -887 -3 -888 -2 0 165 0 165 213 2 212 3 3 183 2 182 -215 0
-215 0 0 115 0 115 215 0 215 0 0 179 c0 177 0 179 -22 185 -13 3 -110 6 -215
6 l-193 0 0 110 0 110 215 0 215 0 0 185 0 185 -215 0 -215 0 0 110 0 110 215
0 215 0 0 185 0 185 -215 0 -215 0 0 110 0 110 215 0 215 0 0 185 0 185 -215
0 -215 0 0 165 0 165 890 0 890 0 -2 -1697z m-2618 886 c0 -4 -97 -204 -215
-444 l-214 -436 223 -449 c124 -246 223 -450 221 -452 -2 -2 -77 2 -167 9 -90
6 -177 12 -193 12 -30 1 -32 4 -132 239 -56 130 -115 277 -133 327 -17 49 -32
91 -34 92 -2 2 -13 -25 -26 -59 -12 -35 -70 -175 -128 -312 l-107 -249 -173 5
c-95 3 -175 8 -177 10 -5 4 30 74 282 567 l124 244 -16 39 c-17 43 -85 193
-160 353 -130 277 -197 427 -193 430 7 8 71 14 214 20 131 6 142 5 147 -12 3
-10 31 -83 63 -163 31 -80 80 -212 109 -293 l51 -148 38 103 c21 57 81 204
134 328 l97 225 170 10 c94 6 176 11 183 11 6 0 12 -3 12 -7z"/>
<path d="M3450 3545 l0 -185 375 0 375 0 0 185 0 185 -375 0 -375 0 0 -185z"/>
<path d="M3450 2955 l0 -185 375 0 375 0 0 185 0 185 -375 0 -375 0 0 -185z"/>
<path d="M3450 2365 l0 -185 375 0 375 0 0 185 0 185 -375 0 -375 0 0 -185z"/>
<path d="M3450 1775 l0 -185 375 0 375 0 -2 183 -3 182 -372 2 -373 2 0 -184z"/>
<path d="M3450 1177 l0 -187 373 2 372 3 3 182 2 183 -375 2 -375 3 0 -188z"/>
</g>
</svg>
