<?xml version="1.0" encoding="UTF-8"?>
<!DOCTYPE svg PUBLIC "-//W3C//DTD SVG 1.1//EN" "http://www.w3.org/Graphics/SVG/1.1/DTD/svg11.dtd">
<svg xmlns="http://www.w3.org/2000/svg" version="1.1" width="300px" height="300px" style="shape-rendering:geometricPrecision; text-rendering:geometricPrecision; image-rendering:optimizeQuality; fill-rule:evenodd; clip-rule:evenodd" xmlns:xlink="http://www.w3.org/1999/xlink">
<g><path style="opacity:1" fill="#16577e" d="M 131.5,-0.5 C 143.5,-0.5 155.5,-0.5 167.5,-0.5C 230.815,9.96863 272.981,45.6353 294,106.5C 296.278,114.877 298.111,123.21 299.5,131.5C 299.5,143.5 299.5,155.5 299.5,167.5C 289.031,230.815 253.365,272.981 192.5,294C 184.123,296.278 175.79,298.111 167.5,299.5C 155.5,299.5 143.5,299.5 131.5,299.5C 68.1853,289.031 26.0187,253.365 5,192.5C 2.72213,184.123 0.888795,175.79 -0.5,167.5C -0.5,155.5 -0.5,143.5 -0.5,131.5C 9.98255,69.7396 44.6492,27.9063 103.5,6C 112.862,3.36516 122.195,1.1985 131.5,-0.5 Z"/></g>
<g><path style="opacity:1" fill="#fcfcfc" d="M 68.5,165.5 C 70.2798,177.532 74.9465,188.199 82.5,197.5C 87.412,205.415 93.7453,212.081 101.5,217.5C 110.569,223.253 120.235,227.586 130.5,230.5C 135.616,231.806 140.949,232.473 146.5,232.5C 147.784,237.756 148.451,243.256 148.5,249C 148.333,254.167 148.167,259.333 148,264.5C 137.083,263.464 126.25,261.964 115.5,260C 126.162,263.777 137.162,265.61 148.5,265.5C 148.5,265.833 148.5,266.167 148.5,266.5C 148.5,276.167 148.5,285.833 148.5,295.5C 144.5,295.5 140.5,295.5 136.5,295.5C 100.285,292.056 69.6184,277.39 44.5,251.5C 46.433,251.271 48.0997,250.438 49.5,249C 55.6496,243.263 61.3163,237.096 66.5,230.5C 59.9565,223.97 54.6231,216.637 50.5,208.5C 44.1709,196.512 39.8375,183.846 37.5,170.5C 47.815,168.671 58.1483,167.004 68.5,165.5 Z"/></g>
<g><path style="opacity:1" fill="#fcfcfc" d="M 219.5,239.5 C 216.017,242.739 212.35,245.739 208.5,248.5C 199.741,252.753 190.741,256.42 181.5,259.5C 180.209,259.263 179.209,259.596 178.5,260.5C 169.305,262.649 159.972,263.649 150.5,263.5C 149.895,252.909 150.562,242.575 152.5,232.5C 156.645,232.67 160.645,232.003 164.5,230.5C 159.571,205.257 155.404,179.924 152,154.5C 175.118,182.439 197.618,210.773 219.5,239.5 Z"/></g>
<g><path style="opacity:1" fill="#aeaeae" d="M 137.5,196.5 C 137.768,198.099 137.434,199.432 136.5,200.5C 136.5,199.5 136.5,198.5 136.5,197.5C 131.707,196.771 127.374,194.937 123.5,192C 128.044,193.569 132.711,195.069 137.5,196.5 Z"/></g>
<g><path style="opacity:1" fill="#b6b6b6" d="M 35.5,170.5 C 36.1667,170.5 36.8333,170.5 37.5,170.5C 39.8375,183.846 44.1709,196.512 50.5,208.5C 42.7738,197.003 37.7738,184.336 35.5,170.5 Z"/></g>
<g><path style="opacity:1" fill="#f8f8f8" d="M 107.5,179.5 C 111.22,180.846 113.22,183.18 113.5,186.5C 121.487,178.346 129.654,170.346 138,162.5C 140.799,163.773 142.633,165.773 143.5,168.5C 142.126,177.992 140.126,187.325 137.5,196.5C 132.711,195.069 128.044,193.569 123.5,192C 127.374,194.937 131.707,196.771 136.5,197.5C 136.5,198.5 136.5,199.5 136.5,200.5C 134.284,210.463 132.284,220.463 130.5,230.5C 120.235,227.586 110.569,223.253 101.5,217.5C 93.7453,212.081 87.412,205.415 82.5,197.5C 76.5291,187.55 72.1958,176.883 69.5,165.5C 93.5941,160.182 117.927,155.682 142.5,152C 124.52,160.323 106.854,169.157 89.5,178.5C 90.8314,181.834 92.6647,184.834 95,187.5C 99.0502,184.61 103.217,181.943 107.5,179.5 Z"/></g>
<g><path style="opacity:1" fill="#b8b8b8" d="M 68.5,165.5 C 68.8333,165.5 69.1667,165.5 69.5,165.5C 72.1958,176.883 76.5291,187.55 82.5,197.5C 74.9465,188.199 70.2798,177.532 68.5,165.5 Z"/></g>
<g><path style="opacity:1" fill="#fdfdfd" d="M 183.5,150.5 C 188.167,150.5 192.833,150.5 197.5,150.5C 197.521,156.281 197.021,161.948 196,167.5C 198.382,162.09 199.549,156.424 199.5,150.5C 210.172,150.333 220.839,150.5 231.5,151C 230.368,160.262 228.868,169.429 227,178.5C 230.683,169.583 232.517,160.25 232.5,150.5C 242.833,150.5 253.167,150.5 263.5,150.5C 263.577,175.201 256.411,197.534 242,217.5C 241.329,218.252 240.496,218.586 239.5,218.5C 210.53,196.009 181.53,173.509 152.5,151C 162.828,150.5 173.161,150.334 183.5,150.5 Z"/></g>
<g><path style="opacity:1" fill="#fdfdfd" d="M 33.5,155.5 C 34.1667,160.5 34.8333,165.5 35.5,170.5C 37.7738,184.336 42.7738,197.003 50.5,208.5C 54.6231,216.637 59.9565,223.97 66.5,230.5C 61.3163,237.096 55.6496,243.263 49.5,249C 48.0997,250.438 46.433,251.271 44.5,251.5C 20.3581,226.87 6.69142,197.203 3.5,162.5C 3.5,158.5 3.5,154.5 3.5,150.5C 13.1667,150.5 22.8333,150.5 32.5,150.5C 32.2155,152.415 32.5489,154.081 33.5,155.5 Z"/></g>
<g><path style="opacity:1" fill="#bcc3c7" d="M 295.5,136.5 C 296.833,144.167 296.833,151.833 295.5,159.5C 295.5,156.5 295.5,153.5 295.5,150.5C 285.442,151.14 275.775,150.473 266.5,148.5C 276.167,148.5 285.833,148.5 295.5,148.5C 295.5,144.5 295.5,140.5 295.5,136.5 Z"/></g>
<g><path style="opacity:1" fill="#c2c2c2" d="M 246.5,87.5 C 259.145,105.716 265.479,126.049 265.5,148.5C 265.675,175.309 257.675,199.309 241.5,220.5C 240.5,220.167 239.833,219.5 239.5,218.5C 240.496,218.586 241.329,218.252 242,217.5C 256.411,197.534 263.577,175.201 263.5,150.5C 253.167,150.5 242.833,150.5 232.5,150.5C 232.517,160.25 230.683,169.583 227,178.5C 228.868,169.429 230.368,160.262 231.5,151C 220.839,150.5 210.172,150.333 199.5,150.5C 199.549,156.424 198.382,162.09 196,167.5C 197.021,161.948 197.521,156.281 197.5,150.5C 192.833,150.5 188.167,150.5 183.5,150.5C 183.5,149.833 183.5,149.167 183.5,148.5C 188.511,148.666 193.511,148.499 198.5,148C 197.324,139.488 195.157,131.321 192,123.5C 197.388,130.949 199.888,139.282 199.5,148.5C 210.172,148.667 220.839,148.5 231.5,148C 230.348,136.907 228.181,126.074 225,115.5C 230.17,125.851 232.67,136.851 232.5,148.5C 243.172,148.667 253.839,148.5 264.5,148C 263.541,126.33 257.541,106.163 246.5,87.5 Z"/></g>
<g><path style="opacity:1" fill="#c3c6c9" d="M 3.5,137.5 C 3.5,141.167 3.5,144.833 3.5,148.5C 13.1667,148.5 22.8333,148.5 32.5,148.5C 32.2155,146.585 32.5489,144.919 33.5,143.5C 33.5,147.5 33.5,151.5 33.5,155.5C 32.5489,154.081 32.2155,152.415 32.5,150.5C 22.8333,150.5 13.1667,150.5 3.5,150.5C 3.5,154.5 3.5,158.5 3.5,162.5C 2.16667,154.167 2.16667,145.833 3.5,137.5 Z"/></g>
<g><path style="opacity:1" fill="#1e1c19" d="M 131.5,67.5 C 131.833,68.1667 132.167,68.8333 132.5,69.5C 134.216,80.0961 136.55,90.4294 139.5,100.5C 139.216,102.415 139.549,104.081 140.5,105.5C 142.244,114.555 144.244,123.555 146.5,132.5C 147.197,136.956 148.364,141.29 150,145.5C 151.791,141.589 153.291,137.589 154.5,133.5C 158.442,123.948 162.108,114.281 165.5,104.5C 166.338,104.158 166.672,103.492 166.5,102.5C 170.562,92.6467 174.229,82.6467 177.5,72.5C 178.167,72.5 178.5,72.1667 178.5,71.5C 180.45,66.5982 182.117,61.5982 183.5,56.5C 193.725,59.5575 202.891,64.5575 211,71.5C 211.667,72.1667 211.667,72.8333 211,73.5C 207.951,77.0426 205.118,80.7093 202.5,84.5C 185.732,105.172 169.066,126.006 152.5,147C 157.664,146.001 162.664,144.501 167.5,142.5C 171.942,141.575 176.275,140.242 180.5,138.5C 182.976,141.283 183.976,144.616 183.5,148.5C 183.5,149.167 183.5,149.833 183.5,150.5C 173.161,150.334 162.828,150.5 152.5,151C 181.53,173.509 210.53,196.009 239.5,218.5C 239.833,219.5 240.5,220.167 241.5,220.5C 245.959,223.787 250.292,227.287 254.5,231C 247.649,239.352 239.982,246.852 231.5,253.5C 228.148,249.429 224.815,245.429 221.5,241.5C 221.167,240.5 220.5,239.833 219.5,239.5C 197.618,210.773 175.118,182.439 152,154.5C 155.404,179.924 159.571,205.257 164.5,230.5C 160.645,232.003 156.645,232.67 152.5,232.5C 150.5,232.5 148.5,232.5 146.5,232.5C 140.949,232.473 135.616,231.806 130.5,230.5C 132.284,220.463 134.284,210.463 136.5,200.5C 137.434,199.432 137.768,198.099 137.5,196.5C 140.126,187.325 142.126,177.992 143.5,168.5C 145.6,163.427 146.767,158.094 147,152.5C 133.507,161.152 120.34,170.152 107.5,179.5C 103.217,181.943 99.0502,184.61 95,187.5C 92.6647,184.834 90.8314,181.834 89.5,178.5C 106.854,169.157 124.52,160.323 142.5,152C 117.927,155.682 93.5941,160.182 69.5,165.5C 69.1667,165.5 68.8333,165.5 68.5,165.5C 58.1483,167.004 47.815,168.671 37.5,170.5C 36.8333,170.5 36.1667,170.5 35.5,170.5C 34.8333,165.5 34.1667,160.5 33.5,155.5C 33.5,151.5 33.5,147.5 33.5,143.5C 33.9077,127.535 37.9077,112.535 45.5,98.5C 74.5814,113.041 103.915,127.041 133.5,140.5C 137.164,143.167 141.164,145 145.5,146C 136.29,134.301 126.623,123.134 116.5,112.5C 103.249,94.9123 89.2486,77.9123 74.5,61.5C 71.1907,57.1853 67.8574,52.852 64.5,48.5C 80.6847,33.5748 99.6847,24.2414 121.5,20.5C 124.362,36.2779 127.695,51.9446 131.5,67.5 Z"/></g>
<g><path style="opacity:1" fill="#b7b7b7" d="M 187.5,221.5 C 189.379,221.393 189.712,221.893 188.5,223C 181.243,226.977 173.577,229.31 165.5,230C 173.245,227.95 180.579,225.117 187.5,221.5 Z"/></g>
<g><path style="opacity:1" fill="#b0f6ae" d="M 148.5,153.5 C 153.655,178.954 158.322,204.62 162.5,230.5C 152.584,230.819 142.75,230.486 133,229.5C 132.333,227.5 132.333,225.5 133,223.5C 138.489,200.233 143.655,176.899 148.5,153.5 Z"/></g>
<g><path style="opacity:1" fill="#82f1dd" d="M 135.5,156.5 C 137.379,156.393 137.712,156.893 136.5,158C 122.697,166.971 109.03,176.137 95.5,185.5C 94.3333,183.833 93.1667,182.167 92,180.5C 91.3828,179.551 91.5494,178.718 92.5,178C 107.069,171.102 121.402,163.935 135.5,156.5 Z"/></g>
<g><path style="opacity:1" fill="#e1e1e1" d="M 143.5,168.5 C 142.633,165.773 140.799,163.773 138,162.5C 129.654,170.346 121.487,178.346 113.5,186.5C 113.22,183.18 111.22,180.846 107.5,179.5C 120.34,170.152 133.507,161.152 147,152.5C 146.767,158.094 145.6,163.427 143.5,168.5 Z"/></g>
<g><path style="opacity:1" fill="#fbdc6f" d="M 99.5,157.5 C 89.9543,159.809 80.2876,161.476 70.5,162.5C 68.5772,158.971 67.9106,154.971 68.5,150.5C 78.8333,150.5 89.1667,150.5 99.5,150.5C 99.5,152.833 99.5,155.167 99.5,157.5 Z"/></g>
<g><path style="opacity:1" fill="#2a3e6d" d="M 157.5,147.5 C 165.316,148.492 173.316,148.826 181.5,148.5C 173.01,149.657 164.343,149.824 155.5,149C 156.044,148.283 156.711,147.783 157.5,147.5 Z"/></g>
<g><path style="opacity:1" fill="#eacb5e" d="M 103.5,128.5 C 104.167,128.5 104.5,128.833 104.5,129.5C 104.263,132.647 103.43,135.647 102,138.5C 101.502,141.817 101.335,145.15 101.5,148.5C 111.833,148.5 122.167,148.5 132.5,148.5C 132.833,146.5 133.167,144.5 133.5,142.5C 137.633,144.4 141.633,146.567 145.5,149C 130.254,152.374 114.92,155.207 99.5,157.5C 99.5,155.167 99.5,152.833 99.5,150.5C 89.1667,150.5 78.8333,150.5 68.5,150.5C 67.9106,154.971 68.5772,158.971 70.5,162.5C 69.791,163.404 68.791,163.737 67.5,163.5C 66.8005,159.202 66.4672,154.869 66.5,150.5C 26.5,149.833 26.5,149.167 66.5,148.5C 66.418,136.913 68.918,125.913 74,115.5C 70.8889,125.887 68.7222,136.554 67.5,147.5C 78.1459,148.499 88.8126,148.832 99.5,148.5C 99.6842,141.579 101.018,134.912 103.5,128.5 Z"/></g>
<g><path style="opacity:1" fill="#6d98f4" d="M 181.5,148.5 C 173.316,148.826 165.316,148.492 157.5,147.5C 164.915,145.479 172.248,143.145 179.5,140.5C 181.229,142.851 181.896,145.518 181.5,148.5 Z"/></g>
<g><path style="opacity:1" fill="#fcdd6f" d="M 104.5,129.5 C 114.285,133.559 123.952,137.892 133.5,142.5C 133.167,144.5 132.833,146.5 132.5,148.5C 122.167,148.5 111.833,148.5 101.5,148.5C 101.335,145.15 101.502,141.817 102,138.5C 103.43,135.647 104.263,132.647 104.5,129.5 Z"/></g>
<g><path style="opacity:1" fill="#cccccc" d="M 166.5,102.5 C 166.672,103.492 166.338,104.158 165.5,104.5C 165.389,103.883 165.056,103.383 164.5,103C 159.856,101.971 155.19,101.138 150.5,100.5C 150.5,111.167 150.5,121.833 150.5,132.5C 151.959,132.433 153.292,132.766 154.5,133.5C 153.291,137.589 151.791,141.589 150,145.5C 148.364,141.29 147.197,136.956 146.5,132.5C 148.475,122.554 149.142,112.221 148.5,101.5C 145.833,101.5 143.167,101.5 140.5,101.5C 140.5,102.833 140.5,104.167 140.5,105.5C 139.549,104.081 139.216,102.415 139.5,100.5C 142.43,99.701 145.43,99.3677 148.5,99.5C 149.167,59.5 149.833,59.5 150.5,99.5C 156.097,99.2586 161.43,100.259 166.5,102.5 Z"/></g>
<g><path style="opacity:1" fill="#d2d2d2" d="M 116.5,112.5 C 126.623,123.134 136.29,134.301 145.5,146C 141.164,145 137.164,143.167 133.5,140.5C 136.317,140.199 136.984,138.866 135.5,136.5C 128.485,129.652 121.652,122.652 115,115.5C 108.657,122.139 108.157,121.805 113.5,114.5C 114.5,113.833 115.5,113.167 116.5,112.5 Z"/></g>
<g><path style="opacity:1" fill="#fddd6f" d="M 103.5,128.5 C 101.018,134.912 99.6842,141.579 99.5,148.5C 88.8126,148.832 78.1459,148.499 67.5,147.5C 68.7222,136.554 70.8889,125.887 74,115.5C 68.918,125.913 66.418,136.913 66.5,148.5C 26.5,149.167 26.5,149.833 66.5,150.5C 66.4672,154.869 66.8005,159.202 67.5,163.5C 57.2733,165.737 46.94,167.404 36.5,168.5C 32.6965,145.331 35.6965,123.164 45.5,102C 48.9243,102.361 52.2577,103.361 55.5,105C 71.4037,113.119 87.4037,120.952 103.5,128.5 Z"/></g>
<g><path style="opacity:1" fill="#fbfbfb" d="M 165.5,104.5 C 162.108,114.281 158.442,123.948 154.5,133.5C 153.292,132.766 151.959,132.433 150.5,132.5C 150.5,121.833 150.5,111.167 150.5,100.5C 155.19,101.138 159.856,101.971 164.5,103C 165.056,103.383 165.389,103.883 165.5,104.5 Z"/></g>
<g><path style="opacity:1" fill="#f8f8f8" d="M 146.5,132.5 C 144.244,123.555 142.244,114.555 140.5,105.5C 140.5,104.167 140.5,102.833 140.5,101.5C 143.167,101.5 145.833,101.5 148.5,101.5C 149.142,112.221 148.475,122.554 146.5,132.5 Z"/></g>
<g><path style="opacity:1" fill="#fdfdfd" d="M 239.5,77.5 C 241.344,81.1916 243.677,84.5249 246.5,87.5C 257.541,106.163 263.541,126.33 264.5,148C 253.839,148.5 243.172,148.667 232.5,148.5C 232.67,136.851 230.17,125.851 225,115.5C 228.181,126.074 230.348,136.907 231.5,148C 220.839,148.5 210.172,148.667 199.5,148.5C 199.888,139.282 197.388,130.949 192,123.5C 195.157,131.321 197.324,139.488 198.5,148C 193.511,148.499 188.511,148.666 183.5,148.5C 183.976,144.616 182.976,141.283 180.5,138.5C 176.275,140.242 171.942,141.575 167.5,142.5C 164.891,142.17 163.224,140.67 162.5,138C 169.35,130.317 176.683,123.15 184.5,116.5C 189.181,120.316 189.514,119.816 185.5,115C 192.652,107.348 199.985,99.8477 207.5,92.5C 209.149,93.6477 210.649,94.981 212,96.5C 212.667,95.8333 212.667,95.1667 212,94.5C 210.624,93.2949 209.458,91.9616 208.5,90.5C 216.126,83.544 223.793,76.544 231.5,69.5C 233.854,72.5211 236.521,75.1877 239.5,77.5 Z"/></g>
<g><path style="opacity:1" fill="#e4e4e4" d="M 202.5,84.5 C 204.118,86.785 206.118,88.785 208.5,90.5C 209.458,91.9616 210.624,93.2949 212,94.5C 212.667,95.1667 212.667,95.8333 212,96.5C 210.649,94.981 209.149,93.6477 207.5,92.5C 199.985,99.8477 192.652,107.348 185.5,115C 189.514,119.816 189.181,120.316 184.5,116.5C 176.683,123.15 169.35,130.317 162.5,138C 163.224,140.67 164.891,142.17 167.5,142.5C 162.664,144.501 157.664,146.001 152.5,147C 169.066,126.006 185.732,105.172 202.5,84.5 Z"/></g>
<g><path style="opacity:1" fill="#e0f984" d="M 184.5,58.5 C 193.903,61.3653 202.236,66.0319 209.5,72.5C 190.857,96.3107 172.024,119.977 153,143.5C 163.572,115.293 174.072,86.9593 184.5,58.5 Z"/></g>
<g><path style="opacity:1" fill="#fcfcfc" d="M 177.5,72.5 C 174.229,82.6467 170.562,92.6467 166.5,102.5C 161.43,100.259 156.097,99.2586 150.5,99.5C 149.833,59.5 149.167,59.5 148.5,99.5C 145.43,99.3677 142.43,99.701 139.5,100.5C 136.55,90.4294 134.216,80.0961 132.5,69.5C 147.738,67.4569 162.738,68.4569 177.5,72.5 Z"/></g>
<g><path style="opacity:1" fill="#b6b6b6" d="M 69.5,66.5 C 69.8333,67.8333 70.1667,69.1667 70.5,70.5C 69.5041,70.5858 68.6708,70.2524 68,69.5C 65.3333,72.1667 62.6667,74.8333 60,77.5C 61.0651,74.3936 63.0651,71.727 66,69.5C 66.4922,68.451 66.3256,67.451 65.5,66.5C 66.6998,65.7084 68.0331,65.7084 69.5,66.5 Z"/></g>
<g><path style="opacity:1" fill="#c3c3c4" d="M 136.5,3.5 C 144.167,2.16667 151.833,2.16667 159.5,3.5C 156.5,3.5 153.5,3.5 150.5,3.5C 150.5,13.5 150.5,23.5 150.5,33.5C 167.147,33.5805 182.814,37.2472 197.5,44.5C 189.006,41.5032 180.339,39.0032 171.5,37C 164.54,35.9133 157.54,35.4133 150.5,35.5C 150.5,45.8333 150.5,56.1667 150.5,66.5C 160.167,66.4988 169.5,68.1655 178.5,71.5C 178.5,72.1667 178.167,72.5 177.5,72.5C 162.738,68.4569 147.738,67.4569 132.5,69.5C 132.167,68.8333 131.833,68.1667 131.5,67.5C 137.172,67.2401 142.839,66.9068 148.5,66.5C 148.667,55.8281 148.5,45.1615 148,34.5C 143.333,35.1667 138.667,35.8333 134,36.5C 133.833,36.1667 133.667,35.8333 133.5,35.5C 138.425,34.2594 143.425,33.5927 148.5,33.5C 148.5,23.5 148.5,13.5 148.5,3.5C 144.5,3.5 140.5,3.5 136.5,3.5 Z"/></g>
<g><path style="opacity:1" fill="#ebebec" d="M 74.5,61.5 C 89.2486,77.9123 103.249,94.9123 116.5,112.5C 115.5,113.167 114.5,113.833 113.5,114.5C 98.8102,100.144 84.4769,85.4773 70.5,70.5C 70.1667,69.1667 69.8333,67.8333 69.5,66.5C 70.8333,64.5 72.5,62.8333 74.5,61.5 Z"/></g>
<g><path style="opacity:1" fill="#fbfcfc" d="M 197.5,44.5 C 200.678,47.2583 204.345,49.2583 208.5,50.5C 212.553,53.8827 216.886,56.8827 221.5,59.5C 224.771,61.5912 227.937,63.9245 231,66.5C 237.216,61.0732 243.216,55.4066 249,49.5C 250.438,48.0997 251.271,46.433 251.5,44.5C 277.391,69.6202 292.057,100.287 295.5,136.5C 295.5,140.5 295.5,144.5 295.5,148.5C 285.833,148.5 276.167,148.5 266.5,148.5C 266.167,148.5 265.833,148.5 265.5,148.5C 265.479,126.049 259.145,105.716 246.5,87.5C 245.149,83.4584 242.815,80.1251 239.5,77.5C 236.521,75.1877 233.854,72.5211 231.5,69.5C 223.793,76.544 216.126,83.544 208.5,90.5C 206.118,88.785 204.118,86.785 202.5,84.5C 205.118,80.7093 207.951,77.0426 211,73.5C 211.667,72.8333 211.667,72.1667 211,71.5C 202.891,64.5575 193.725,59.5575 183.5,56.5C 182.117,61.5982 180.45,66.5982 178.5,71.5C 169.5,68.1655 160.167,66.4988 150.5,66.5C 150.5,56.1667 150.5,45.8333 150.5,35.5C 157.54,35.4133 164.54,35.9133 171.5,37C 180.339,39.0032 189.006,41.5032 197.5,44.5 Z"/></g>
<g><path style="opacity:1" fill="#b3b3b3" d="M 239.5,77.5 C 242.815,80.1251 245.149,83.4584 246.5,87.5C 243.677,84.5249 241.344,81.1916 239.5,77.5 Z"/></g>
<g><path style="opacity:1" fill="#b1b1b1" d="M 208.5,50.5 C 213.665,52.3375 217.999,55.3375 221.5,59.5C 216.886,56.8827 212.553,53.8827 208.5,50.5 Z"/></g>
<g><path style="opacity:1" fill="#fbfcfc" d="M 136.5,3.5 C 140.5,3.5 144.5,3.5 148.5,3.5C 148.5,13.5 148.5,23.5 148.5,33.5C 143.425,33.5927 138.425,34.2594 133.5,35.5C 133.667,35.8333 133.833,36.1667 134,36.5C 138.667,35.8333 143.333,35.1667 148,34.5C 148.5,45.1615 148.667,55.8281 148.5,66.5C 142.839,66.9068 137.172,67.2401 131.5,67.5C 127.695,51.9446 124.362,36.2779 121.5,20.5C 99.6847,24.2414 80.6847,33.5748 64.5,48.5C 67.8574,52.852 71.1907,57.1853 74.5,61.5C 72.5,62.8333 70.8333,64.5 69.5,66.5C 68.0331,65.7084 66.6998,65.7084 65.5,66.5C 66.3256,67.451 66.4922,68.451 66,69.5C 63.0651,71.727 61.0651,74.3936 60,77.5C 62.6667,74.8333 65.3333,72.1667 68,69.5C 68.6708,70.2524 69.5041,70.5858 70.5,70.5C 84.4769,85.4773 98.8102,100.144 113.5,114.5C 108.157,121.805 108.657,122.139 115,115.5C 121.652,122.652 128.485,129.652 135.5,136.5C 136.984,138.866 136.317,140.199 133.5,140.5C 103.915,127.041 74.5814,113.041 45.5,98.5C 37.9077,112.535 33.9077,127.535 33.5,143.5C 32.5489,144.919 32.2155,146.585 32.5,148.5C 22.8333,148.5 13.1667,148.5 3.5,148.5C 3.5,144.833 3.5,141.167 3.5,137.5C 10.1901,80.6689 39.1901,39.8356 90.5,15C 105.163,8.50311 120.496,4.66977 136.5,3.5 Z"/></g>
<g><path style="opacity:1" fill="#b0b0b0" d="M 197.5,44.5 C 201.655,45.7417 205.322,47.7417 208.5,50.5C 204.345,49.2583 200.678,47.2583 197.5,44.5 Z"/></g>
<g><path style="opacity:1" fill="#fba76d" d="M 114.5,22.5 C 118.421,21.93 120.588,23.5967 121,27.5C 130.324,66.7866 138.991,106.12 147,145.5C 120.167,113.167 93.3333,80.8333 66.5,48.5C 80.7693,36.6976 96.7693,28.031 114.5,22.5 Z"/></g>
<g><path style="opacity:1" fill="#fdfefe" d="M 159.5,3.5 C 195.361,5.99031 226.027,19.657 251.5,44.5C 251.271,46.433 250.438,48.0997 249,49.5C 243.216,55.4066 237.216,61.0732 231,66.5C 227.937,63.9245 224.771,61.5912 221.5,59.5C 217.999,55.3375 213.665,52.3375 208.5,50.5C 205.322,47.7417 201.655,45.7417 197.5,44.5C 182.814,37.2472 167.147,33.5805 150.5,33.5C 150.5,23.5 150.5,13.5 150.5,3.5C 153.5,3.5 156.5,3.5 159.5,3.5 Z"/></g>
<g><path style="opacity:1" fill="#f7a56b" d="M 157.5,158.5 C 157.897,157.475 158.563,157.308 159.5,158C 188.546,181.381 217.88,204.381 247.5,227C 249.019,228.351 250.352,229.851 251.5,231.5C 245.852,238.981 239.352,245.648 232,251.5C 207.147,220.43 182.314,189.43 157.5,158.5 Z"/></g>
<g><path style="opacity:1" fill="#fdfdfd" d="M 265.5,148.5 C 265.833,148.5 266.167,148.5 266.5,148.5C 275.775,150.473 285.442,151.14 295.5,150.5C 295.5,153.5 295.5,156.5 295.5,159.5C 290.059,216.584 261.726,257.75 210.5,283C 194.281,290.351 177.281,294.517 159.5,295.5C 156.5,295.5 153.5,295.5 150.5,295.5C 151.14,285.442 150.473,275.775 148.5,266.5C 148.5,266.167 148.5,265.833 148.5,265.5C 159.408,265.752 170.075,264.252 180.5,261C 179.906,260.536 179.239,260.369 178.5,260.5C 179.209,259.596 180.209,259.263 181.5,259.5C 181.917,260.124 182.584,260.457 183.5,260.5C 192.75,258.211 201.083,254.211 208.5,248.5C 212.993,246.421 217.326,244.088 221.5,241.5C 224.815,245.429 228.148,249.429 231.5,253.5C 239.982,246.852 247.649,239.352 254.5,231C 250.292,227.287 245.959,223.787 241.5,220.5C 257.675,199.309 265.675,175.309 265.5,148.5 Z"/></g>
<g><path style="opacity:1" fill="#b1b1b1" d="M 219.5,239.5 C 220.5,239.833 221.167,240.5 221.5,241.5C 217.326,244.088 212.993,246.421 208.5,248.5C 212.35,245.739 216.017,242.739 219.5,239.5 Z"/></g>
<g><path style="opacity:1" fill="#b5b5b5" d="M 208.5,248.5 C 201.083,254.211 192.75,258.211 183.5,260.5C 182.584,260.457 181.917,260.124 181.5,259.5C 190.741,256.42 199.741,252.753 208.5,248.5 Z"/></g>
<g><path style="opacity:1" fill="#b5b5b5" d="M 87.5,247.5 C 87.56,246.957 87.8933,246.624 88.5,246.5C 96.7702,251.468 105.437,255.635 114.5,259C 104.861,256.852 95.8612,253.019 87.5,247.5 Z"/></g>
<g><path style="opacity:1" fill="#c6c6c6" d="M 146.5,232.5 C 148.5,232.5 150.5,232.5 152.5,232.5C 150.562,242.575 149.895,252.909 150.5,263.5C 159.972,263.649 169.305,262.649 178.5,260.5C 179.239,260.369 179.906,260.536 180.5,261C 170.075,264.252 159.408,265.752 148.5,265.5C 137.162,265.61 126.162,263.777 115.5,260C 126.25,261.964 137.083,263.464 148,264.5C 148.167,259.333 148.333,254.167 148.5,249C 148.451,243.256 147.784,237.756 146.5,232.5 Z"/></g>
<g><path style="opacity:1" fill="#bcc3c7" d="M 148.5,266.5 C 150.473,275.775 151.14,285.442 150.5,295.5C 153.5,295.5 156.5,295.5 159.5,295.5C 151.833,296.833 144.167,296.833 136.5,295.5C 140.5,295.5 144.5,295.5 148.5,295.5C 148.5,285.833 148.5,276.167 148.5,266.5 Z"/></g>
</svg>
