<?xml version="1.0" standalone="no"?>
<!DOCTYPE svg PUBLIC "-//W3C//DTD SVG 20010904//EN"
 "http://www.w3.org/TR/2001/REC-SVG-20010904/DTD/svg10.dtd">
<svg version="1.0" xmlns="http://www.w3.org/2000/svg"
 width="160.000000pt" height="160.000000pt" viewBox="0 0 160.000000 160.000000"
 preserveAspectRatio="xMidYMid meet">

<g transform="translate(0.000000,160.000000) scale(0.100000,-0.100000)"
fill="#000000" stroke="none">
<path d="M29 1574 l-24 -26 -3 -743 -2 -743 26 -31 26 -31 752 0 c664 0 754 2
774 16 l22 15 0 769 0 769 -22 15 c-20 14 -110 16 -773 16 l-752 0 -24 -26z
m676 -359 c32 -31 31 -50 0 -81 -19 -18 -31 -23 -48 -19 -48 15 -62 70 -27
105 26 26 46 25 75 -5z m258 13 c9 -7 19 -25 22 -40 5 -21 1 -33 -19 -52 -31
-32 -50 -33 -81 -1 -30 29 -31 45 -4 79 22 28 55 34 82 14z m264 -10 c13 -12
23 -31 23 -42 0 -27 -39 -66 -67 -66 -30 0 -63 34 -63 65 0 31 33 65 62 65 12
0 32 -10 45 -22z m-513 -260 c14 -19 16 -65 16 -304 l0 -283 -26 -20 c-34 -27
-50 -26 -79 4 l-25 24 0 281 c0 267 1 281 20 300 27 27 75 26 94 -2z m256 2
c11 -11 20 -29 20 -40 0 -25 -42 -70 -65 -70 -18 0 -65 43 -65 60 0 16 21 53
34 62 20 14 56 8 76 -12z m260 0 c19 -19 20 -33 20 -300 l0 -281 -25 -24 c-29
-30 -45 -31 -79 -4 l-26 20 0 286 c0 253 2 289 17 305 21 24 68 23 93 -2z
m-778 -257 c16 -14 18 -34 18 -172 0 -86 -4 -161 -8 -167 -9 -13 -46 -34 -62
-34 -6 0 -22 11 -35 25 -24 23 -25 28 -25 175 0 137 2 152 20 170 24 24 67 26
92 3z m522 -5 c13 -18 16 -53 16 -174 l0 -153 -26 -20 c-33 -26 -45 -26 -78 0
l-26 20 0 155 c0 141 2 156 20 174 27 27 75 26 94 -2z"/>
</g>
</svg>
