<?xml version="1.0" standalone="no"?>
<!DOCTYPE svg PUBLIC "-//W3C//DTD SVG 20010904//EN"
 "http://www.w3.org/TR/2001/REC-SVG-20010904/DTD/svg10.dtd">
<svg version="1.0" xmlns="http://www.w3.org/2000/svg"
 width="474.000000pt" height="474.000000pt" viewBox="0 0 474.000000 474.000000"
 preserveAspectRatio="xMidYMid meet">

<g transform="translate(0.000000,474.000000) scale(0.100000,-0.100000)"
fill="#000000" stroke="none">
<path d="M999 4175 c-52 -14 -78 -28 -134 -70 -55 -41 -79 -71 -112 -135 l-28
-55 -3 -722 -2 -721 26 -21 c29 -23 83 -28 116 -10 11 6 28 29 39 52 18 40 19
76 19 707 0 637 1 666 19 696 31 51 85 86 142 92 46 4 95 -6 219 -48 14 -4 52
-16 85 -25 33 -9 94 -27 135 -40 41 -13 147 -44 235 -70 88 -26 169 -51 180
-55 20 -8 117 -37 300 -91 150 -44 252 -75 330 -99 97 -30 255 -77 350 -105
44 -13 186 -56 315 -95 129 -40 255 -78 280 -85 25 -8 90 -27 145 -43 55 -17
140 -42 190 -57 71 -20 98 -34 128 -63 71 -69 67 -1 67 -1069 0 -928 -1 -965
-19 -1001 -10 -20 -30 -47 -43 -59 -24 -23 -116 -62 -133 -57 -47 12 -207 62
-277 85 -102 34 -100 34 -143 14 -78 -38 -70 -143 14 -179 20 -8 102 -35 182
-60 126 -40 158 -46 233 -46 75 0 95 4 154 30 112 51 188 142 221 265 7 27 11
351 11 1020 0 1051 2 1003 -49 1104 -25 48 -85 111 -138 144 -23 15 -95 43
-160 62 -65 20 -129 39 -143 44 -14 5 -52 17 -85 26 -33 10 -86 26 -117 36
-31 10 -88 27 -125 38 -68 19 -282 82 -338 100 -55 18 -570 173 -600 181 -16
4 -66 19 -110 33 -44 13 -107 33 -140 42 -33 10 -100 30 -150 45 -49 15 -137
42 -195 60 -58 17 -118 36 -135 41 -64 20 -371 111 -390 116 -11 2 -49 14 -85
25 -36 11 -79 24 -96 29 -41 12 -129 9 -185 -6z"/>
<path d="M2797 2885 c-76 -28 -127 -86 -152 -172 -23 -78 -22 -2066 1 -2132
24 -69 42 -98 76 -124 111 -84 249 -72 336 27 64 73 62 34 62 1167 0 1164 5
1091 -80 1178 -67 68 -154 88 -243 56z"/>
<path d="M2132 2631 c-31 -11 -70 -35 -94 -57 -79 -77 -73 -1 -73 -924 0 -454
4 -838 8 -853 11 -40 92 -124 132 -137 19 -6 62 -12 97 -13 95 -2 165 40 209
125 18 36 19 69 19 869 l0 831 -26 48 c-31 57 -91 102 -156 118 -58 15 -52 15
-116 -7z"/>
<path d="M1459 2373 c-39 -10 -66 -25 -97 -56 -76 -74 -72 -31 -72 -670 l-1
-575 30 -49 c41 -66 107 -105 187 -111 53 -4 68 0 122 27 51 26 67 40 92 84
l30 52 0 568 c0 544 -1 569 -20 606 -19 39 -103 121 -124 121 -6 1 -29 4 -52
9 -27 5 -59 3 -95 -6z"/>
<path d="M756 2136 c-52 -20 -103 -70 -132 -131 -23 -49 -24 -55 -24 -354 0
-204 4 -317 12 -343 15 -49 78 -123 129 -148 84 -44 201 -20 274 56 58 59 60
76 60 434 0 299 -2 328 -19 363 -23 46 -67 92 -109 114 -43 22 -143 27 -191 9z"/>
</g>
</svg>
